<?xml version="1.0" standalone="no"?>
<!DOCTYPE svg PUBLIC "-//W3C//DTD SVG 20010904//EN"
 "http://www.w3.org/TR/2001/REC-SVG-20010904/DTD/svg10.dtd">
<svg version="1.0" xmlns="http://www.w3.org/2000/svg"
 width="141.000000pt" height="141.000000pt" viewBox="0 0 141.000000 141.000000"
 preserveAspectRatio="xMidYMid meet">
<metadata>
CGP SYSTEMS
</metadata>
<g transform="translate(0.000000,141.000000) scale(0.100000,-0.100000)"
fill="#03BBD3" stroke="none">
<path d="M280 1285 c0 -4 217 -343 226 -354 2 -2 153 -4 334 -4 l331 0 64
-108 c36 -59 65 -110 65 -114 0 -11 -105 -184 -112 -185 -5 0 -72 115 -123
215 -10 19 -23 20 -348 25 l-337 5 -86 140 c-47 77 -88 141 -89 143 -2 2 -9
-9 -17 -25 -8 -15 -54 -92 -101 -171 -48 -79 -87 -145 -87 -147 0 -7 332 -560
344 -573 9 -9 95 -12 387 -10 l375 3 -101 173 c-56 95 -105 175 -108 178 -3 4
-153 7 -333 8 l-328 1 -66 110 -66 110 49 80 c27 44 50 81 52 83 1 2 30 -42
64 -97 l62 -99 297 -1 c163 0 313 0 333 0 l36 -1 93 -170 c51 -93 94 -169 96
-167 6 6 196 322 209 347 15 28 13 31 -161 319 l-176 291 -389 0 c-214 0 -389
-2 -389 -5z m776 -165 c29 -47 53 -89 53 -95 1 -10 -543 -15 -552 -5 -17 21
-115 179 -112 182 2 2 128 3 281 3 l278 0 52 -85z m-213 -730 c19 -22 105
-180 99 -183 -6 -3 -517 -1 -533 2 -10 2 -110 172 -105 180 5 7 532 8 539 1z"/>
</g>
</svg>
