<svg xmlns="http://www.w3.org/2000/svg" xmlns:xlink="http://www.w3.org/1999/xlink"><symbol id="cursor" viewBox="0 0 14 84">
<path d="M7.11308 69.9409L6.99994 1.99992" stroke="#C4C4C4" stroke-opacity="0.2" stroke-dasharray="5 5"/>
<path d="M13.6517 76.8665C13.6517 80.6363 10.5956 83.6924 6.82583 83.6924C3.05603 83.6924 0 80.6363 0 76.8665C0 74.3804 2.96874 65.2281 4.99051 59.2835C5.59545 57.5048 8.05621 57.5048 8.66115 59.2835C10.6829 65.2281 13.6517 74.3804 13.6517 76.8665Z" fill="#C4C4C4"/>
<circle cx="6.83" cy="76.9327" r="4.5" fill="#1C1E21"/>
<circle cx="7" cy="3" r="3" fill="white"/>
</symbol><symbol id="icon-arrow" viewBox="0 0 5 10">
<path d="M2.50006 0.679993V9.31999M0.633392 2.59999L2.50006 0.679993L0.633392 2.59999ZM2.50006 0.679993L4.36673 2.59999L2.50006 0.679993Z" stroke="currentColor" stroke-linecap="round" stroke-linejoin="round"/>
</symbol><symbol id="icon-close" viewBox="0 0 8 9">
<path d="M7.51607 7.53376L0.483765 0.484985M7.51607 0.484985L0.483765 7.53376" stroke="currentColor" stroke-linecap="round"/>
</symbol><symbol id="icon-collapse" viewBox="0 0 8 2">
<line x1="0.5" y1="1.46954" x2="7.5" y2="1.46954" stroke="currentColor" stroke-linecap="round"/>
</symbol><symbol id="icon-fullscreen" viewBox="0 0 8 8">
<rect x="0.5" y="0.5" width="7" height="7" rx="1.5" fill="none" stroke="currentColor"/>
</symbol><symbol id="icon-search" viewBox="0 0 12 12">
<path d="M11.4286 11.4286L8.86519 8.86061M10.2858 5.42861C10.2858 6.71681 9.77403 7.95224 8.86314 8.86313C7.95224 9.77402 6.71681 10.2858 5.42862 10.2858C4.14042 10.2858 2.90499 9.77402 1.9941 8.86313C1.08321 7.95224 0.571472 6.71681 0.571472 5.42861C0.571472 4.14042 1.08321 2.90499 1.9941 1.9941C2.90499 1.08321 4.14042 0.571472 5.42862 0.571472C6.71681 0.571472 7.95224 1.08321 8.86314 1.9941C9.77403 2.90499 10.2858 4.14042 10.2858 5.42861Z" stroke="currentColor" fill="none" stroke-linecap="round"/>
</symbol><symbol id="round-scale" viewBox="0 0 163 163">
<path d="M154.85 81.5C159.351 81.5 163.042 77.8419 162.593 73.3633C160.725 54.7364 152.483 37.225 139.129 23.8708C123.845 8.58659 103.115 1.6319e-06 81.5 0C59.8849 -1.6319e-06 39.155 8.58658 23.8708 23.8708C10.5166 37.225 2.27531 54.7364 0.406935 73.3633C-0.042297 77.8419 3.64888 81.5 8.15 81.5C12.6511 81.5 16.2474 77.8369 16.8085 73.3709C18.6045 59.0761 25.1012 45.6921 35.3966 35.3966C47.624 23.1693 64.2079 16.3 81.5 16.3C98.7921 16.3 115.376 23.1693 127.603 35.3966C137.899 45.6921 144.396 59.0761 146.192 73.3709C146.753 77.8369 150.349 81.5 154.85 81.5Z" fill="#323438" stroke="#c4c4c4" stroke-width="2" stroke-opacity="0.1"/>
<path d="M8.15 81.5C3.64888 81.5 -0.0422429 77.842 0.407098 73.3634C1.84343 59.0473 7.05127 45.3138 15.5651 33.5955L28.7521 43.1764C22.2627 52.1082 18.1742 62.5035 16.8087 73.371C16.2475 77.837 12.6511 81.5 8.15 81.5Z" fill="#F6544C"/>
<path d="M15.5651 33.5955C25.6816 19.6714 39.9464 9.30739 56.3152 3.98887L61.3521 19.4911C48.2571 23.7459 36.8453 32.0371 28.7521 43.1764L15.5651 33.5955Z" fill="#F6544C" fill-opacity="0.5"/>
<path d="M56.3151 3.9889C72.6839 -1.32964 90.3162 -1.32963 106.685 3.98891L101.648 19.4911C88.5529 15.2363 74.4471 15.2363 61.3521 19.4911L56.3151 3.9889Z" fill="#323438"/>
<path d="M106.685 3.9889C123.054 9.30743 137.318 19.6715 147.435 33.5956L134.248 43.1764C126.155 32.0372 114.743 23.7459 101.648 19.4911L106.685 3.9889Z" fill="#15E3B5" fill-opacity="0.5"/>
<path d="M147.435 33.5955C155.949 45.3138 161.157 59.0473 162.593 73.3634C163.042 77.8421 159.351 81.5 154.85 81.5C150.349 81.5 146.753 77.837 146.191 73.371C144.826 62.5035 140.737 52.1082 134.248 43.1764L147.435 33.5955Z" fill="#15E3B5"/>
<!-- <mask id="path-7-inside-1_1_616" fill="white">
<path d="M154.85 81.5C159.351 81.5 163.042 77.8419 162.593 73.3633C160.725 54.7364 152.483 37.225 139.129 23.8708C123.845 8.58659 103.115 1.6319e-06 81.5 0C59.8849 -1.6319e-06 39.155 8.58658 23.8708 23.8708C10.5166 37.225 2.27531 54.7364 0.406935 73.3633C-0.042297 77.8419 3.64888 81.5 8.15 81.5C12.6511 81.5 16.2474 77.8369 16.8085 73.3709C18.6045 59.0761 25.1012 45.6921 35.3966 35.3966C47.624 23.1693 64.2079 16.3 81.5 16.3C98.7921 16.3 115.376 23.1693 127.603 35.3966C137.899 45.6921 144.396 59.0761 146.192 73.3709C146.753 77.8369 150.349 81.5 154.85 81.5Z"/>
</mask>
<path d="M154.85 81.5C159.351 81.5 163.042 77.8419 162.593 73.3633C160.725 54.7364 152.483 37.225 139.129 23.8708C123.845 8.58659 103.115 1.6319e-06 81.5 0C59.8849 -1.6319e-06 39.155 8.58658 23.8708 23.8708C10.5166 37.225 2.27531 54.7364 0.406935 73.3633C-0.042297 77.8419 3.64888 81.5 8.15 81.5C12.6511 81.5 16.2474 77.8369 16.8085 73.3709C18.6045 59.0761 25.1012 45.6921 35.3966 35.3966C47.624 23.1693 64.2079 16.3 81.5 16.3C98.7921 16.3 115.376 23.1693 127.603 35.3966C137.899 45.6921 144.396 59.0761 146.192 73.3709C146.753 77.8369 150.349 81.5 154.85 81.5Z" stroke="#C4C4C4" stroke-opacity="0.1" stroke-width="2" mask="url(#path-7-inside-1_1_616)"/> -->
</symbol><symbol id="scale" viewBox="0 0 285 19" preserveAspectRatio="none">
<line x1="0.5" y1="0.5" x2="0.499999" y2="18.5" stroke="#C4C4C4" stroke-opacity="0.5" stroke-linecap="round"/>
<line x1="2.5" y1="0.5" x2="2.5" y2="9.5" stroke="#C4C4C4" stroke-opacity="0.5" stroke-linecap="round"/>
<line x1="4.5" y1="0.5" x2="4.5" y2="9.5" stroke="#C4C4C4" stroke-opacity="0.5" stroke-linecap="round"/>
<line x1="6.5" y1="0.5" x2="6.5" y2="9.5" stroke="#C4C4C4" stroke-opacity="0.5" stroke-linecap="round"/>
<line x1="8.5" y1="0.5" x2="8.5" y2="9.5" stroke="#C4C4C4" stroke-opacity="0.5" stroke-linecap="round"/>
<line x1="10.5" y1="0.5" x2="10.5" y2="9.5" stroke="#C4C4C4" stroke-opacity="0.5" stroke-linecap="round"/>
<line x1="12.5" y1="0.5" x2="12.5" y2="9.5" stroke="#C4C4C4" stroke-opacity="0.5" stroke-linecap="round"/>
<line x1="14.5" y1="0.5" x2="14.5" y2="9.5" stroke="#C4C4C4" stroke-opacity="0.5" stroke-linecap="round"/>
<line x1="16.5" y1="0.5" x2="16.5" y2="9.5" stroke="#C4C4C4" stroke-opacity="0.5" stroke-linecap="round"/>
<line x1="18.5" y1="0.5" x2="18.5" y2="9.5" stroke="#C4C4C4" stroke-opacity="0.5" stroke-linecap="round"/>
<line x1="20.5" y1="0.5" x2="20.5" y2="9.5" stroke="#C4C4C4" stroke-opacity="0.5" stroke-linecap="round"/>
<line x1="22.5" y1="0.5" x2="22.5" y2="9.5" stroke="#C4C4C4" stroke-opacity="0.5" stroke-linecap="round"/>
<line x1="24.5" y1="0.5" x2="24.5" y2="9.5" stroke="#C4C4C4" stroke-opacity="0.5" stroke-linecap="round"/>
<line x1="26.5" y1="0.5" x2="26.5" y2="9.5" stroke="#C4C4C4" stroke-opacity="0.5" stroke-linecap="round"/>
<line x1="28.5" y1="0.5" x2="28.5" y2="9.5" stroke="#C4C4C4" stroke-opacity="0.5" stroke-linecap="round"/>
<line x1="30.5" y1="0.5" x2="30.5" y2="9.5" stroke="#C4C4C4" stroke-opacity="0.5" stroke-linecap="round"/>
<line x1="32.5" y1="0.5" x2="32.5" y2="9.5" stroke="#C4C4C4" stroke-opacity="0.5" stroke-linecap="round"/>
<line x1="34.5" y1="0.5" x2="34.5" y2="9.5" stroke="#C4C4C4" stroke-opacity="0.5" stroke-linecap="round"/>
<line x1="36.5" y1="0.5" x2="36.5" y2="9.5" stroke="#C4C4C4" stroke-opacity="0.5" stroke-linecap="round"/>
<line x1="38.5" y1="0.5" x2="38.5" y2="9.5" stroke="#C4C4C4" stroke-opacity="0.5" stroke-linecap="round"/>
<line x1="40.5" y1="0.5" x2="40.5" y2="9.5" stroke="#C4C4C4" stroke-opacity="0.5" stroke-linecap="round"/>
<line x1="42.5" y1="0.5" x2="42.5" y2="9.5" stroke="#C4C4C4" stroke-opacity="0.5" stroke-linecap="round"/>
<line x1="44.5" y1="0.5" x2="44.5" y2="9.5" stroke="#C4C4C4" stroke-opacity="0.5" stroke-linecap="round"/>
<line x1="46.5" y1="0.5" x2="46.5" y2="9.5" stroke="#C4C4C4" stroke-opacity="0.5" stroke-linecap="round"/>
<line x1="48.5" y1="0.5" x2="48.5" y2="9.5" stroke="#C4C4C4" stroke-opacity="0.5" stroke-linecap="round"/>
<line x1="50.5" y1="0.5" x2="50.5" y2="9.5" stroke="#C4C4C4" stroke-opacity="0.5" stroke-linecap="round"/>
<line x1="52.5" y1="0.5" x2="52.5" y2="9.5" stroke="#C4C4C4" stroke-opacity="0.5" stroke-linecap="round"/>
<line x1="54.5" y1="0.5" x2="54.5" y2="9.5" stroke="#C4C4C4" stroke-opacity="0.5" stroke-linecap="round"/>
<line x1="56.5" y1="0.5" x2="56.5" y2="9.5" stroke="#C4C4C4" stroke-opacity="0.5" stroke-linecap="round"/>
<line x1="58.5" y1="0.5" x2="58.5" y2="9.5" stroke="#C4C4C4" stroke-opacity="0.5" stroke-linecap="round"/>
<line x1="60.5" y1="0.5" x2="60.5" y2="9.5" stroke="#C4C4C4" stroke-opacity="0.5" stroke-linecap="round"/>
<line x1="62.5" y1="0.5" x2="62.5" y2="9.5" stroke="#C4C4C4" stroke-opacity="0.5" stroke-linecap="round"/>
<line x1="64.5" y1="0.5" x2="64.5" y2="9.5" stroke="#C4C4C4" stroke-opacity="0.5" stroke-linecap="round"/>
<line x1="66.5" y1="0.5" x2="66.5" y2="9.5" stroke="#C4C4C4" stroke-opacity="0.5" stroke-linecap="round"/>
<line x1="68.5" y1="0.5" x2="68.5" y2="9.5" stroke="#C4C4C4" stroke-opacity="0.5" stroke-linecap="round"/>
<line x1="70.5" y1="0.5" x2="70.5" y2="9.5" stroke="#C4C4C4" stroke-opacity="0.5" stroke-linecap="round"/>
<line x1="72.5" y1="0.5" x2="72.5" y2="9.5" stroke="#C4C4C4" stroke-opacity="0.5" stroke-linecap="round"/>
<line x1="74.5" y1="0.5" x2="74.5" y2="9.5" stroke="#C4C4C4" stroke-opacity="0.5" stroke-linecap="round"/>
<line x1="76.5" y1="0.5" x2="76.5" y2="9.5" stroke="#C4C4C4" stroke-opacity="0.5" stroke-linecap="round"/>
<line x1="78.5" y1="0.5" x2="78.5" y2="9.5" stroke="#C4C4C4" stroke-opacity="0.5" stroke-linecap="round"/>
<line x1="80.5" y1="0.5" x2="80.5" y2="9.5" stroke="#C4C4C4" stroke-opacity="0.5" stroke-linecap="round"/>
<line x1="82.5" y1="0.5" x2="82.5" y2="9.5" stroke="#C4C4C4" stroke-opacity="0.5" stroke-linecap="round"/>
<line x1="84.5" y1="0.5" x2="84.5" y2="9.5" stroke="#C4C4C4" stroke-opacity="0.5" stroke-linecap="round"/>
<line x1="86.5" y1="0.5" x2="86.5" y2="9.5" stroke="#C4C4C4" stroke-opacity="0.5" stroke-linecap="round"/>
<line x1="88.5" y1="0.5" x2="88.5" y2="9.5" stroke="#C4C4C4" stroke-opacity="0.5" stroke-linecap="round"/>
<line x1="90.5" y1="0.5" x2="90.5" y2="9.5" stroke="#C4C4C4" stroke-opacity="0.5" stroke-linecap="round"/>
<line x1="92.5" y1="0.5" x2="92.5" y2="9.5" stroke="#C4C4C4" stroke-opacity="0.5" stroke-linecap="round"/>
<line x1="94.5" y1="0.5" x2="94.5" y2="9.5" stroke="#C4C4C4" stroke-opacity="0.5" stroke-linecap="round"/>
<line x1="96.5" y1="0.5" x2="96.5" y2="9.5" stroke="#C4C4C4" stroke-opacity="0.5" stroke-linecap="round"/>
<line x1="98.5" y1="0.5" x2="98.5" y2="9.5" stroke="#C4C4C4" stroke-opacity="0.5" stroke-linecap="round"/>
<line x1="100.5" y1="0.5" x2="100.5" y2="9.5" stroke="#C4C4C4" stroke-opacity="0.5" stroke-linecap="round"/>
<line x1="102.5" y1="0.5" x2="102.5" y2="9.5" stroke="#C4C4C4" stroke-opacity="0.5" stroke-linecap="round"/>
<line x1="104.5" y1="0.5" x2="104.5" y2="9.5" stroke="#C4C4C4" stroke-opacity="0.5" stroke-linecap="round"/>
<line x1="106.5" y1="0.5" x2="106.5" y2="9.5" stroke="#C4C4C4" stroke-opacity="0.5" stroke-linecap="round"/>
<line x1="108.5" y1="0.5" x2="108.5" y2="9.5" stroke="#C4C4C4" stroke-opacity="0.5" stroke-linecap="round"/>
<line x1="110.5" y1="0.5" x2="110.5" y2="9.5" stroke="#C4C4C4" stroke-opacity="0.5" stroke-linecap="round"/>
<line x1="112.5" y1="0.5" x2="112.5" y2="9.5" stroke="#C4C4C4" stroke-opacity="0.5" stroke-linecap="round"/>
<line x1="114.5" y1="0.5" x2="114.5" y2="9.5" stroke="#C4C4C4" stroke-opacity="0.5" stroke-linecap="round"/>
<line x1="116.5" y1="0.5" x2="116.5" y2="9.5" stroke="#C4C4C4" stroke-opacity="0.5" stroke-linecap="round"/>
<line x1="118.5" y1="0.5" x2="118.5" y2="9.5" stroke="#C4C4C4" stroke-opacity="0.5" stroke-linecap="round"/>
<line x1="120.5" y1="0.5" x2="120.5" y2="9.5" stroke="#C4C4C4" stroke-opacity="0.5" stroke-linecap="round"/>
<line x1="122.5" y1="0.5" x2="122.5" y2="9.5" stroke="#C4C4C4" stroke-opacity="0.5" stroke-linecap="round"/>
<line x1="124.5" y1="0.5" x2="124.5" y2="9.5" stroke="#C4C4C4" stroke-opacity="0.5" stroke-linecap="round"/>
<line x1="126.5" y1="0.5" x2="126.5" y2="9.5" stroke="#C4C4C4" stroke-opacity="0.5" stroke-linecap="round"/>
<line x1="128.5" y1="0.5" x2="128.5" y2="9.5" stroke="#C4C4C4" stroke-opacity="0.5" stroke-linecap="round"/>
<line x1="130.5" y1="0.5" x2="130.5" y2="9.5" stroke="#C4C4C4" stroke-opacity="0.5" stroke-linecap="round"/>
<line x1="132.5" y1="0.5" x2="132.5" y2="9.5" stroke="#C4C4C4" stroke-opacity="0.5" stroke-linecap="round"/>
<line x1="134.5" y1="0.5" x2="134.5" y2="9.5" stroke="#C4C4C4" stroke-opacity="0.5" stroke-linecap="round"/>
<line x1="136.5" y1="0.5" x2="136.5" y2="9.5" stroke="#C4C4C4" stroke-opacity="0.5" stroke-linecap="round"/>
<line x1="138.5" y1="0.5" x2="138.5" y2="9.5" stroke="#C4C4C4" stroke-opacity="0.5" stroke-linecap="round"/>
<line x1="140.5" y1="0.5" x2="140.5" y2="9.5" stroke="#C4C4C4" stroke-opacity="0.5" stroke-linecap="round"/>
<line x1="142.5" y1="0.5" x2="142.5" y2="9.5" stroke="#C4C4C4" stroke-opacity="0.5" stroke-linecap="round"/>
<line x1="144.5" y1="0.5" x2="144.5" y2="9.5" stroke="#C4C4C4" stroke-opacity="0.5" stroke-linecap="round"/>
<line x1="146.5" y1="0.5" x2="146.5" y2="9.5" stroke="#C4C4C4" stroke-opacity="0.5" stroke-linecap="round"/>
<line x1="148.5" y1="0.5" x2="148.5" y2="9.5" stroke="#C4C4C4" stroke-opacity="0.5" stroke-linecap="round"/>
<line x1="150.5" y1="0.5" x2="150.5" y2="9.5" stroke="#C4C4C4" stroke-opacity="0.5" stroke-linecap="round"/>
<line x1="152.5" y1="0.5" x2="152.5" y2="9.5" stroke="#C4C4C4" stroke-opacity="0.5" stroke-linecap="round"/>
<line x1="154.5" y1="0.5" x2="154.5" y2="9.5" stroke="#C4C4C4" stroke-opacity="0.5" stroke-linecap="round"/>
<line x1="156.5" y1="0.5" x2="156.5" y2="9.5" stroke="#C4C4C4" stroke-opacity="0.5" stroke-linecap="round"/>
<line x1="158.5" y1="0.5" x2="158.5" y2="9.5" stroke="#C4C4C4" stroke-opacity="0.5" stroke-linecap="round"/>
<line x1="160.5" y1="0.5" x2="160.5" y2="9.5" stroke="#C4C4C4" stroke-opacity="0.5" stroke-linecap="round"/>
<line x1="162.5" y1="0.5" x2="162.5" y2="9.5" stroke="#C4C4C4" stroke-opacity="0.5" stroke-linecap="round"/>
<line x1="164.5" y1="0.5" x2="164.5" y2="9.5" stroke="#C4C4C4" stroke-opacity="0.5" stroke-linecap="round"/>
<line x1="166.5" y1="0.5" x2="166.5" y2="9.5" stroke="#C4C4C4" stroke-opacity="0.5" stroke-linecap="round"/>
<line x1="168.5" y1="0.5" x2="168.5" y2="9.5" stroke="#C4C4C4" stroke-opacity="0.5" stroke-linecap="round"/>
<line x1="170.5" y1="0.5" x2="170.5" y2="9.5" stroke="#C4C4C4" stroke-opacity="0.5" stroke-linecap="round"/>
<line x1="172.5" y1="0.5" x2="172.5" y2="9.5" stroke="#C4C4C4" stroke-opacity="0.5" stroke-linecap="round"/>
<line x1="174.5" y1="0.5" x2="174.5" y2="9.5" stroke="#C4C4C4" stroke-opacity="0.5" stroke-linecap="round"/>
<line x1="176.5" y1="0.5" x2="176.5" y2="9.5" stroke="#C4C4C4" stroke-opacity="0.5" stroke-linecap="round"/>
<line x1="178.5" y1="0.5" x2="178.5" y2="9.5" stroke="#C4C4C4" stroke-opacity="0.5" stroke-linecap="round"/>
<line x1="180.5" y1="0.5" x2="180.5" y2="9.5" stroke="#C4C4C4" stroke-opacity="0.5" stroke-linecap="round"/>
<line x1="182.5" y1="0.5" x2="182.5" y2="9.5" stroke="#C4C4C4" stroke-opacity="0.5" stroke-linecap="round"/>
<line x1="184.5" y1="0.5" x2="184.5" y2="9.5" stroke="#C4C4C4" stroke-opacity="0.5" stroke-linecap="round"/>
<line x1="186.5" y1="0.5" x2="186.5" y2="9.5" stroke="#C4C4C4" stroke-opacity="0.5" stroke-linecap="round"/>
<line x1="188.5" y1="0.5" x2="188.5" y2="9.5" stroke="#C4C4C4" stroke-opacity="0.5" stroke-linecap="round"/>
<line x1="190.5" y1="0.5" x2="190.5" y2="9.5" stroke="#C4C4C4" stroke-opacity="0.5" stroke-linecap="round"/>
<line x1="192.5" y1="0.5" x2="192.5" y2="9.5" stroke="#C4C4C4" stroke-opacity="0.5" stroke-linecap="round"/>
<line x1="194.5" y1="0.5" x2="194.5" y2="9.5" stroke="#C4C4C4" stroke-opacity="0.5" stroke-linecap="round"/>
<line x1="196.5" y1="0.5" x2="196.5" y2="9.5" stroke="#C4C4C4" stroke-opacity="0.5" stroke-linecap="round"/>
<line x1="200.5" y1="0.5" x2="200.5" y2="9.5" stroke="#C4C4C4" stroke-opacity="0.5" stroke-linecap="round"/>
<line x1="198.5" y1="0.5" x2="198.5" y2="9.5" stroke="#C4C4C4" stroke-opacity="0.5" stroke-linecap="round"/>
<line x1="202.5" y1="0.5" x2="202.5" y2="9.5" stroke="#C4C4C4" stroke-opacity="0.5" stroke-linecap="round"/>
<line x1="204.5" y1="0.5" x2="204.5" y2="9.5" stroke="#C4C4C4" stroke-opacity="0.5" stroke-linecap="round"/>
<line x1="206.5" y1="0.5" x2="206.5" y2="9.5" stroke="#C4C4C4" stroke-opacity="0.5" stroke-linecap="round"/>
<line x1="208.5" y1="0.5" x2="208.5" y2="9.5" stroke="#C4C4C4" stroke-opacity="0.5" stroke-linecap="round"/>
<line x1="210.5" y1="0.5" x2="210.5" y2="9.5" stroke="#C4C4C4" stroke-opacity="0.5" stroke-linecap="round"/>
<line x1="212.5" y1="0.5" x2="212.5" y2="9.5" stroke="#C4C4C4" stroke-opacity="0.5" stroke-linecap="round"/>
<line x1="214.5" y1="0.5" x2="214.5" y2="9.5" stroke="#C4C4C4" stroke-opacity="0.5" stroke-linecap="round"/>
<line x1="216.5" y1="0.5" x2="216.5" y2="9.5" stroke="#C4C4C4" stroke-opacity="0.5" stroke-linecap="round"/>
<line x1="218.5" y1="0.5" x2="218.5" y2="9.5" stroke="#C4C4C4" stroke-opacity="0.5" stroke-linecap="round"/>
<line x1="220.5" y1="0.5" x2="220.5" y2="9.5" stroke="#C4C4C4" stroke-opacity="0.5" stroke-linecap="round"/>
<line x1="222.5" y1="0.5" x2="222.5" y2="9.5" stroke="#C4C4C4" stroke-opacity="0.5" stroke-linecap="round"/>
<line x1="224.5" y1="0.5" x2="224.5" y2="9.5" stroke="#C4C4C4" stroke-opacity="0.5" stroke-linecap="round"/>
<line x1="226.5" y1="0.5" x2="226.5" y2="9.5" stroke="#C4C4C4" stroke-opacity="0.5" stroke-linecap="round"/>
<line x1="228.5" y1="0.5" x2="228.5" y2="9.5" stroke="#C4C4C4" stroke-opacity="0.5" stroke-linecap="round"/>
<line x1="230.5" y1="0.5" x2="230.5" y2="9.5" stroke="#C4C4C4" stroke-opacity="0.5" stroke-linecap="round"/>
<line x1="232.5" y1="0.5" x2="232.5" y2="9.5" stroke="#C4C4C4" stroke-opacity="0.5" stroke-linecap="round"/>
<line x1="234.5" y1="0.5" x2="234.5" y2="9.5" stroke="#C4C4C4" stroke-opacity="0.5" stroke-linecap="round"/>
<line x1="236.5" y1="0.5" x2="236.5" y2="9.5" stroke="#C4C4C4" stroke-opacity="0.5" stroke-linecap="round"/>
<line x1="238.5" y1="0.5" x2="238.5" y2="9.5" stroke="#C4C4C4" stroke-opacity="0.5" stroke-linecap="round"/>
<line x1="240.5" y1="0.5" x2="240.5" y2="9.5" stroke="#C4C4C4" stroke-opacity="0.5" stroke-linecap="round"/>
<line x1="242.5" y1="0.5" x2="242.5" y2="9.5" stroke="#C4C4C4" stroke-opacity="0.5" stroke-linecap="round"/>
<line x1="244.5" y1="0.5" x2="244.5" y2="9.5" stroke="#C4C4C4" stroke-opacity="0.5" stroke-linecap="round"/>
<line x1="246.5" y1="0.5" x2="246.5" y2="9.5" stroke="#C4C4C4" stroke-opacity="0.5" stroke-linecap="round"/>
<line x1="248.5" y1="0.5" x2="248.5" y2="9.5" stroke="#C4C4C4" stroke-opacity="0.5" stroke-linecap="round"/>
<line x1="250.5" y1="0.5" x2="250.5" y2="9.5" stroke="#C4C4C4" stroke-opacity="0.5" stroke-linecap="round"/>
<line x1="252.5" y1="0.5" x2="252.5" y2="9.5" stroke="#C4C4C4" stroke-opacity="0.5" stroke-linecap="round"/>
<line x1="254.5" y1="0.5" x2="254.5" y2="9.5" stroke="#C4C4C4" stroke-opacity="0.5" stroke-linecap="round"/>
<line x1="256.5" y1="0.5" x2="256.5" y2="9.5" stroke="#C4C4C4" stroke-opacity="0.5" stroke-linecap="round"/>
<line x1="258.5" y1="0.5" x2="258.5" y2="9.5" stroke="#C4C4C4" stroke-opacity="0.5" stroke-linecap="round"/>
<line x1="260.5" y1="0.5" x2="260.5" y2="9.5" stroke="#C4C4C4" stroke-opacity="0.5" stroke-linecap="round"/>
<line x1="262.5" y1="0.5" x2="262.5" y2="9.5" stroke="#C4C4C4" stroke-opacity="0.5" stroke-linecap="round"/>
<line x1="264.5" y1="0.5" x2="264.5" y2="9.5" stroke="#C4C4C4" stroke-opacity="0.5" stroke-linecap="round"/>
<line x1="266.5" y1="0.5" x2="266.5" y2="9.5" stroke="#C4C4C4" stroke-opacity="0.5" stroke-linecap="round"/>
<line x1="268.5" y1="0.5" x2="268.5" y2="9.5" stroke="#C4C4C4" stroke-opacity="0.5" stroke-linecap="round"/>
<line x1="270.5" y1="0.5" x2="270.5" y2="9.5" stroke="#C4C4C4" stroke-opacity="0.5" stroke-linecap="round"/>
<line x1="272.5" y1="0.5" x2="272.5" y2="9.5" stroke="#C4C4C4" stroke-opacity="0.5" stroke-linecap="round"/>
<line x1="274.5" y1="0.5" x2="274.5" y2="9.5" stroke="#C4C4C4" stroke-opacity="0.5" stroke-linecap="round"/>
<line x1="276.5" y1="0.5" x2="276.5" y2="9.5" stroke="#C4C4C4" stroke-opacity="0.5" stroke-linecap="round"/>
<line x1="278.5" y1="0.5" x2="278.5" y2="9.5" stroke="#C4C4C4" stroke-opacity="0.5" stroke-linecap="round"/>
<line x1="280.5" y1="0.5" x2="280.5" y2="9.5" stroke="#C4C4C4" stroke-opacity="0.5" stroke-linecap="round"/>
<line x1="282.5" y1="0.5" x2="282.5" y2="9.5" stroke="#C4C4C4" stroke-opacity="0.5" stroke-linecap="round"/>
<line x1="284.5" y1="0.5" x2="284.5" y2="18.5" stroke="#C4C4C4" stroke-opacity="0.5" stroke-linecap="round"/>
</symbol></svg>