<svg width="285" height="19" viewBox="0 0 285 19" fill="none" xmlns="http://www.w3.org/2000/svg">
<line x1="0.5" y1="0.5" x2="0.499999" y2="18.5" stroke="#C4C4C4" stroke-opacity="0.5" stroke-linecap="round"/>
<line x1="2.5" y1="0.5" x2="2.5" y2="9.5" stroke="#C4C4C4" stroke-opacity="0.5" stroke-linecap="round"/>
<line x1="4.5" y1="0.5" x2="4.5" y2="9.5" stroke="#C4C4C4" stroke-opacity="0.5" stroke-linecap="round"/>
<line x1="6.5" y1="0.5" x2="6.5" y2="9.5" stroke="#C4C4C4" stroke-opacity="0.5" stroke-linecap="round"/>
<line x1="8.5" y1="0.5" x2="8.5" y2="9.5" stroke="#C4C4C4" stroke-opacity="0.5" stroke-linecap="round"/>
<line x1="10.5" y1="0.5" x2="10.5" y2="9.5" stroke="#C4C4C4" stroke-opacity="0.5" stroke-linecap="round"/>
<line x1="12.5" y1="0.5" x2="12.5" y2="9.5" stroke="#C4C4C4" stroke-opacity="0.5" stroke-linecap="round"/>
<line x1="14.5" y1="0.5" x2="14.5" y2="9.5" stroke="#C4C4C4" stroke-opacity="0.5" stroke-linecap="round"/>
<line x1="16.5" y1="0.5" x2="16.5" y2="9.5" stroke="#C4C4C4" stroke-opacity="0.5" stroke-linecap="round"/>
<line x1="18.5" y1="0.5" x2="18.5" y2="9.5" stroke="#C4C4C4" stroke-opacity="0.5" stroke-linecap="round"/>
<line x1="20.5" y1="0.5" x2="20.5" y2="9.5" stroke="#C4C4C4" stroke-opacity="0.5" stroke-linecap="round"/>
<line x1="22.5" y1="0.5" x2="22.5" y2="9.5" stroke="#C4C4C4" stroke-opacity="0.5" stroke-linecap="round"/>
<line x1="24.5" y1="0.5" x2="24.5" y2="9.5" stroke="#C4C4C4" stroke-opacity="0.5" stroke-linecap="round"/>
<line x1="26.5" y1="0.5" x2="26.5" y2="9.5" stroke="#C4C4C4" stroke-opacity="0.5" stroke-linecap="round"/>
<line x1="28.5" y1="0.5" x2="28.5" y2="9.5" stroke="#C4C4C4" stroke-opacity="0.5" stroke-linecap="round"/>
<line x1="30.5" y1="0.5" x2="30.5" y2="9.5" stroke="#C4C4C4" stroke-opacity="0.5" stroke-linecap="round"/>
<line x1="32.5" y1="0.5" x2="32.5" y2="9.5" stroke="#C4C4C4" stroke-opacity="0.5" stroke-linecap="round"/>
<line x1="34.5" y1="0.5" x2="34.5" y2="9.5" stroke="#C4C4C4" stroke-opacity="0.5" stroke-linecap="round"/>
<line x1="36.5" y1="0.5" x2="36.5" y2="9.5" stroke="#C4C4C4" stroke-opacity="0.5" stroke-linecap="round"/>
<line x1="38.5" y1="0.5" x2="38.5" y2="9.5" stroke="#C4C4C4" stroke-opacity="0.5" stroke-linecap="round"/>
<line x1="40.5" y1="0.5" x2="40.5" y2="9.5" stroke="#C4C4C4" stroke-opacity="0.5" stroke-linecap="round"/>
<line x1="42.5" y1="0.5" x2="42.5" y2="9.5" stroke="#C4C4C4" stroke-opacity="0.5" stroke-linecap="round"/>
<line x1="44.5" y1="0.5" x2="44.5" y2="9.5" stroke="#C4C4C4" stroke-opacity="0.5" stroke-linecap="round"/>
<line x1="46.5" y1="0.5" x2="46.5" y2="9.5" stroke="#C4C4C4" stroke-opacity="0.5" stroke-linecap="round"/>
<line x1="48.5" y1="0.5" x2="48.5" y2="9.5" stroke="#C4C4C4" stroke-opacity="0.5" stroke-linecap="round"/>
<line x1="50.5" y1="0.5" x2="50.5" y2="9.5" stroke="#C4C4C4" stroke-opacity="0.5" stroke-linecap="round"/>
<line x1="52.5" y1="0.5" x2="52.5" y2="9.5" stroke="#C4C4C4" stroke-opacity="0.5" stroke-linecap="round"/>
<line x1="54.5" y1="0.5" x2="54.5" y2="9.5" stroke="#C4C4C4" stroke-opacity="0.5" stroke-linecap="round"/>
<line x1="56.5" y1="0.5" x2="56.5" y2="9.5" stroke="#C4C4C4" stroke-opacity="0.5" stroke-linecap="round"/>
<line x1="58.5" y1="0.5" x2="58.5" y2="9.5" stroke="#C4C4C4" stroke-opacity="0.5" stroke-linecap="round"/>
<line x1="60.5" y1="0.5" x2="60.5" y2="9.5" stroke="#C4C4C4" stroke-opacity="0.5" stroke-linecap="round"/>
<line x1="62.5" y1="0.5" x2="62.5" y2="9.5" stroke="#C4C4C4" stroke-opacity="0.5" stroke-linecap="round"/>
<line x1="64.5" y1="0.5" x2="64.5" y2="9.5" stroke="#C4C4C4" stroke-opacity="0.5" stroke-linecap="round"/>
<line x1="66.5" y1="0.5" x2="66.5" y2="9.5" stroke="#C4C4C4" stroke-opacity="0.5" stroke-linecap="round"/>
<line x1="68.5" y1="0.5" x2="68.5" y2="9.5" stroke="#C4C4C4" stroke-opacity="0.5" stroke-linecap="round"/>
<line x1="70.5" y1="0.5" x2="70.5" y2="9.5" stroke="#C4C4C4" stroke-opacity="0.5" stroke-linecap="round"/>
<line x1="72.5" y1="0.5" x2="72.5" y2="9.5" stroke="#C4C4C4" stroke-opacity="0.5" stroke-linecap="round"/>
<line x1="74.5" y1="0.5" x2="74.5" y2="9.5" stroke="#C4C4C4" stroke-opacity="0.5" stroke-linecap="round"/>
<line x1="76.5" y1="0.5" x2="76.5" y2="9.5" stroke="#C4C4C4" stroke-opacity="0.5" stroke-linecap="round"/>
<line x1="78.5" y1="0.5" x2="78.5" y2="9.5" stroke="#C4C4C4" stroke-opacity="0.5" stroke-linecap="round"/>
<line x1="80.5" y1="0.5" x2="80.5" y2="9.5" stroke="#C4C4C4" stroke-opacity="0.5" stroke-linecap="round"/>
<line x1="82.5" y1="0.5" x2="82.5" y2="9.5" stroke="#C4C4C4" stroke-opacity="0.5" stroke-linecap="round"/>
<line x1="84.5" y1="0.5" x2="84.5" y2="9.5" stroke="#C4C4C4" stroke-opacity="0.5" stroke-linecap="round"/>
<line x1="86.5" y1="0.5" x2="86.5" y2="9.5" stroke="#C4C4C4" stroke-opacity="0.5" stroke-linecap="round"/>
<line x1="88.5" y1="0.5" x2="88.5" y2="9.5" stroke="#C4C4C4" stroke-opacity="0.5" stroke-linecap="round"/>
<line x1="90.5" y1="0.5" x2="90.5" y2="9.5" stroke="#C4C4C4" stroke-opacity="0.5" stroke-linecap="round"/>
<line x1="92.5" y1="0.5" x2="92.5" y2="9.5" stroke="#C4C4C4" stroke-opacity="0.5" stroke-linecap="round"/>
<line x1="94.5" y1="0.5" x2="94.5" y2="9.5" stroke="#C4C4C4" stroke-opacity="0.5" stroke-linecap="round"/>
<line x1="96.5" y1="0.5" x2="96.5" y2="9.5" stroke="#C4C4C4" stroke-opacity="0.5" stroke-linecap="round"/>
<line x1="98.5" y1="0.5" x2="98.5" y2="9.5" stroke="#C4C4C4" stroke-opacity="0.5" stroke-linecap="round"/>
<line x1="100.5" y1="0.5" x2="100.5" y2="9.5" stroke="#C4C4C4" stroke-opacity="0.5" stroke-linecap="round"/>
<line x1="102.5" y1="0.5" x2="102.5" y2="9.5" stroke="#C4C4C4" stroke-opacity="0.5" stroke-linecap="round"/>
<line x1="104.5" y1="0.5" x2="104.5" y2="9.5" stroke="#C4C4C4" stroke-opacity="0.5" stroke-linecap="round"/>
<line x1="106.5" y1="0.5" x2="106.5" y2="9.5" stroke="#C4C4C4" stroke-opacity="0.5" stroke-linecap="round"/>
<line x1="108.5" y1="0.5" x2="108.5" y2="9.5" stroke="#C4C4C4" stroke-opacity="0.5" stroke-linecap="round"/>
<line x1="110.5" y1="0.5" x2="110.5" y2="9.5" stroke="#C4C4C4" stroke-opacity="0.5" stroke-linecap="round"/>
<line x1="112.5" y1="0.5" x2="112.5" y2="9.5" stroke="#C4C4C4" stroke-opacity="0.5" stroke-linecap="round"/>
<line x1="114.5" y1="0.5" x2="114.5" y2="9.5" stroke="#C4C4C4" stroke-opacity="0.5" stroke-linecap="round"/>
<line x1="116.5" y1="0.5" x2="116.5" y2="9.5" stroke="#C4C4C4" stroke-opacity="0.5" stroke-linecap="round"/>
<line x1="118.5" y1="0.5" x2="118.5" y2="9.5" stroke="#C4C4C4" stroke-opacity="0.5" stroke-linecap="round"/>
<line x1="120.5" y1="0.5" x2="120.5" y2="9.5" stroke="#C4C4C4" stroke-opacity="0.5" stroke-linecap="round"/>
<line x1="122.5" y1="0.5" x2="122.5" y2="9.5" stroke="#C4C4C4" stroke-opacity="0.5" stroke-linecap="round"/>
<line x1="124.5" y1="0.5" x2="124.5" y2="9.5" stroke="#C4C4C4" stroke-opacity="0.5" stroke-linecap="round"/>
<line x1="126.5" y1="0.5" x2="126.5" y2="9.5" stroke="#C4C4C4" stroke-opacity="0.5" stroke-linecap="round"/>
<line x1="128.5" y1="0.5" x2="128.5" y2="9.5" stroke="#C4C4C4" stroke-opacity="0.5" stroke-linecap="round"/>
<line x1="130.5" y1="0.5" x2="130.5" y2="9.5" stroke="#C4C4C4" stroke-opacity="0.5" stroke-linecap="round"/>
<line x1="132.5" y1="0.5" x2="132.5" y2="9.5" stroke="#C4C4C4" stroke-opacity="0.5" stroke-linecap="round"/>
<line x1="134.5" y1="0.5" x2="134.5" y2="9.5" stroke="#C4C4C4" stroke-opacity="0.5" stroke-linecap="round"/>
<line x1="136.5" y1="0.5" x2="136.5" y2="9.5" stroke="#C4C4C4" stroke-opacity="0.5" stroke-linecap="round"/>
<line x1="138.5" y1="0.5" x2="138.5" y2="9.5" stroke="#C4C4C4" stroke-opacity="0.5" stroke-linecap="round"/>
<line x1="140.5" y1="0.5" x2="140.5" y2="9.5" stroke="#C4C4C4" stroke-opacity="0.5" stroke-linecap="round"/>
<line x1="142.5" y1="0.5" x2="142.5" y2="9.5" stroke="#C4C4C4" stroke-opacity="0.5" stroke-linecap="round"/>
<line x1="144.5" y1="0.5" x2="144.5" y2="9.5" stroke="#C4C4C4" stroke-opacity="0.5" stroke-linecap="round"/>
<line x1="146.5" y1="0.5" x2="146.5" y2="9.5" stroke="#C4C4C4" stroke-opacity="0.5" stroke-linecap="round"/>
<line x1="148.5" y1="0.5" x2="148.5" y2="9.5" stroke="#C4C4C4" stroke-opacity="0.5" stroke-linecap="round"/>
<line x1="150.5" y1="0.5" x2="150.5" y2="9.5" stroke="#C4C4C4" stroke-opacity="0.5" stroke-linecap="round"/>
<line x1="152.5" y1="0.5" x2="152.5" y2="9.5" stroke="#C4C4C4" stroke-opacity="0.5" stroke-linecap="round"/>
<line x1="154.5" y1="0.5" x2="154.5" y2="9.5" stroke="#C4C4C4" stroke-opacity="0.5" stroke-linecap="round"/>
<line x1="156.5" y1="0.5" x2="156.5" y2="9.5" stroke="#C4C4C4" stroke-opacity="0.5" stroke-linecap="round"/>
<line x1="158.5" y1="0.5" x2="158.5" y2="9.5" stroke="#C4C4C4" stroke-opacity="0.5" stroke-linecap="round"/>
<line x1="160.5" y1="0.5" x2="160.5" y2="9.5" stroke="#C4C4C4" stroke-opacity="0.5" stroke-linecap="round"/>
<line x1="162.5" y1="0.5" x2="162.5" y2="9.5" stroke="#C4C4C4" stroke-opacity="0.5" stroke-linecap="round"/>
<line x1="164.5" y1="0.5" x2="164.5" y2="9.5" stroke="#C4C4C4" stroke-opacity="0.5" stroke-linecap="round"/>
<line x1="166.5" y1="0.5" x2="166.5" y2="9.5" stroke="#C4C4C4" stroke-opacity="0.5" stroke-linecap="round"/>
<line x1="168.5" y1="0.5" x2="168.5" y2="9.5" stroke="#C4C4C4" stroke-opacity="0.5" stroke-linecap="round"/>
<line x1="170.5" y1="0.5" x2="170.5" y2="9.5" stroke="#C4C4C4" stroke-opacity="0.5" stroke-linecap="round"/>
<line x1="172.5" y1="0.5" x2="172.5" y2="9.5" stroke="#C4C4C4" stroke-opacity="0.5" stroke-linecap="round"/>
<line x1="174.5" y1="0.5" x2="174.5" y2="9.5" stroke="#C4C4C4" stroke-opacity="0.5" stroke-linecap="round"/>
<line x1="176.5" y1="0.5" x2="176.5" y2="9.5" stroke="#C4C4C4" stroke-opacity="0.5" stroke-linecap="round"/>
<line x1="178.5" y1="0.5" x2="178.5" y2="9.5" stroke="#C4C4C4" stroke-opacity="0.5" stroke-linecap="round"/>
<line x1="180.5" y1="0.5" x2="180.5" y2="9.5" stroke="#C4C4C4" stroke-opacity="0.5" stroke-linecap="round"/>
<line x1="182.5" y1="0.5" x2="182.5" y2="9.5" stroke="#C4C4C4" stroke-opacity="0.5" stroke-linecap="round"/>
<line x1="184.5" y1="0.5" x2="184.5" y2="9.5" stroke="#C4C4C4" stroke-opacity="0.5" stroke-linecap="round"/>
<line x1="186.5" y1="0.5" x2="186.5" y2="9.5" stroke="#C4C4C4" stroke-opacity="0.5" stroke-linecap="round"/>
<line x1="188.5" y1="0.5" x2="188.5" y2="9.5" stroke="#C4C4C4" stroke-opacity="0.5" stroke-linecap="round"/>
<line x1="190.5" y1="0.5" x2="190.5" y2="9.5" stroke="#C4C4C4" stroke-opacity="0.5" stroke-linecap="round"/>
<line x1="192.5" y1="0.5" x2="192.5" y2="9.5" stroke="#C4C4C4" stroke-opacity="0.5" stroke-linecap="round"/>
<line x1="194.5" y1="0.5" x2="194.5" y2="9.5" stroke="#C4C4C4" stroke-opacity="0.5" stroke-linecap="round"/>
<line x1="196.5" y1="0.5" x2="196.5" y2="9.5" stroke="#C4C4C4" stroke-opacity="0.5" stroke-linecap="round"/>
<line x1="200.5" y1="0.5" x2="200.5" y2="9.5" stroke="#C4C4C4" stroke-opacity="0.5" stroke-linecap="round"/>
<line x1="198.5" y1="0.5" x2="198.5" y2="9.5" stroke="#C4C4C4" stroke-opacity="0.5" stroke-linecap="round"/>
<line x1="202.5" y1="0.5" x2="202.5" y2="9.5" stroke="#C4C4C4" stroke-opacity="0.5" stroke-linecap="round"/>
<line x1="204.5" y1="0.5" x2="204.5" y2="9.5" stroke="#C4C4C4" stroke-opacity="0.5" stroke-linecap="round"/>
<line x1="206.5" y1="0.5" x2="206.5" y2="9.5" stroke="#C4C4C4" stroke-opacity="0.5" stroke-linecap="round"/>
<line x1="208.5" y1="0.5" x2="208.5" y2="9.5" stroke="#C4C4C4" stroke-opacity="0.5" stroke-linecap="round"/>
<line x1="210.5" y1="0.5" x2="210.5" y2="9.5" stroke="#C4C4C4" stroke-opacity="0.5" stroke-linecap="round"/>
<line x1="212.5" y1="0.5" x2="212.5" y2="9.5" stroke="#C4C4C4" stroke-opacity="0.5" stroke-linecap="round"/>
<line x1="214.5" y1="0.5" x2="214.5" y2="9.5" stroke="#C4C4C4" stroke-opacity="0.5" stroke-linecap="round"/>
<line x1="216.5" y1="0.5" x2="216.5" y2="9.5" stroke="#C4C4C4" stroke-opacity="0.5" stroke-linecap="round"/>
<line x1="218.5" y1="0.5" x2="218.5" y2="9.5" stroke="#C4C4C4" stroke-opacity="0.5" stroke-linecap="round"/>
<line x1="220.5" y1="0.5" x2="220.5" y2="9.5" stroke="#C4C4C4" stroke-opacity="0.5" stroke-linecap="round"/>
<line x1="222.5" y1="0.5" x2="222.5" y2="9.5" stroke="#C4C4C4" stroke-opacity="0.5" stroke-linecap="round"/>
<line x1="224.5" y1="0.5" x2="224.5" y2="9.5" stroke="#C4C4C4" stroke-opacity="0.5" stroke-linecap="round"/>
<line x1="226.5" y1="0.5" x2="226.5" y2="9.5" stroke="#C4C4C4" stroke-opacity="0.5" stroke-linecap="round"/>
<line x1="228.5" y1="0.5" x2="228.5" y2="9.5" stroke="#C4C4C4" stroke-opacity="0.5" stroke-linecap="round"/>
<line x1="230.5" y1="0.5" x2="230.5" y2="9.5" stroke="#C4C4C4" stroke-opacity="0.5" stroke-linecap="round"/>
<line x1="232.5" y1="0.5" x2="232.5" y2="9.5" stroke="#C4C4C4" stroke-opacity="0.5" stroke-linecap="round"/>
<line x1="234.5" y1="0.5" x2="234.5" y2="9.5" stroke="#C4C4C4" stroke-opacity="0.5" stroke-linecap="round"/>
<line x1="236.5" y1="0.5" x2="236.5" y2="9.5" stroke="#C4C4C4" stroke-opacity="0.5" stroke-linecap="round"/>
<line x1="238.5" y1="0.5" x2="238.5" y2="9.5" stroke="#C4C4C4" stroke-opacity="0.5" stroke-linecap="round"/>
<line x1="240.5" y1="0.5" x2="240.5" y2="9.5" stroke="#C4C4C4" stroke-opacity="0.5" stroke-linecap="round"/>
<line x1="242.5" y1="0.5" x2="242.5" y2="9.5" stroke="#C4C4C4" stroke-opacity="0.5" stroke-linecap="round"/>
<line x1="244.5" y1="0.5" x2="244.5" y2="9.5" stroke="#C4C4C4" stroke-opacity="0.5" stroke-linecap="round"/>
<line x1="246.5" y1="0.5" x2="246.5" y2="9.5" stroke="#C4C4C4" stroke-opacity="0.5" stroke-linecap="round"/>
<line x1="248.5" y1="0.5" x2="248.5" y2="9.5" stroke="#C4C4C4" stroke-opacity="0.5" stroke-linecap="round"/>
<line x1="250.5" y1="0.5" x2="250.5" y2="9.5" stroke="#C4C4C4" stroke-opacity="0.5" stroke-linecap="round"/>
<line x1="252.5" y1="0.5" x2="252.5" y2="9.5" stroke="#C4C4C4" stroke-opacity="0.5" stroke-linecap="round"/>
<line x1="254.5" y1="0.5" x2="254.5" y2="9.5" stroke="#C4C4C4" stroke-opacity="0.5" stroke-linecap="round"/>
<line x1="256.5" y1="0.5" x2="256.5" y2="9.5" stroke="#C4C4C4" stroke-opacity="0.5" stroke-linecap="round"/>
<line x1="258.5" y1="0.5" x2="258.5" y2="9.5" stroke="#C4C4C4" stroke-opacity="0.5" stroke-linecap="round"/>
<line x1="260.5" y1="0.5" x2="260.5" y2="9.5" stroke="#C4C4C4" stroke-opacity="0.5" stroke-linecap="round"/>
<line x1="262.5" y1="0.5" x2="262.5" y2="9.5" stroke="#C4C4C4" stroke-opacity="0.5" stroke-linecap="round"/>
<line x1="264.5" y1="0.5" x2="264.5" y2="9.5" stroke="#C4C4C4" stroke-opacity="0.5" stroke-linecap="round"/>
<line x1="266.5" y1="0.5" x2="266.5" y2="9.5" stroke="#C4C4C4" stroke-opacity="0.5" stroke-linecap="round"/>
<line x1="268.5" y1="0.5" x2="268.5" y2="9.5" stroke="#C4C4C4" stroke-opacity="0.5" stroke-linecap="round"/>
<line x1="270.5" y1="0.5" x2="270.5" y2="9.5" stroke="#C4C4C4" stroke-opacity="0.5" stroke-linecap="round"/>
<line x1="272.5" y1="0.5" x2="272.5" y2="9.5" stroke="#C4C4C4" stroke-opacity="0.5" stroke-linecap="round"/>
<line x1="274.5" y1="0.5" x2="274.5" y2="9.5" stroke="#C4C4C4" stroke-opacity="0.5" stroke-linecap="round"/>
<line x1="276.5" y1="0.5" x2="276.5" y2="9.5" stroke="#C4C4C4" stroke-opacity="0.5" stroke-linecap="round"/>
<line x1="278.5" y1="0.5" x2="278.5" y2="9.5" stroke="#C4C4C4" stroke-opacity="0.5" stroke-linecap="round"/>
<line x1="280.5" y1="0.5" x2="280.5" y2="9.5" stroke="#C4C4C4" stroke-opacity="0.5" stroke-linecap="round"/>
<line x1="282.5" y1="0.5" x2="282.5" y2="9.5" stroke="#C4C4C4" stroke-opacity="0.5" stroke-linecap="round"/>
<line x1="284.5" y1="0.5" x2="284.5" y2="18.5" stroke="#C4C4C4" stroke-opacity="0.5" stroke-linecap="round"/>
</svg>
